<?xml version="1.0" encoding="UTF-8"?>
<svg xmlns="http://www.w3.org/2000/svg" viewBox="0 0 16.08 16.08">
  <defs>
    <style>
      .cls-1 {
        fill: #5c697f;
      }

      .cls-2 {
        fill: #f5cc76;
      }
    </style>
  </defs>
  <g id="Layer_2" data-name="Layer 2">
    <rect class="cls-1" width="16.08" height="16.08"/>
    <path class="cls-2" d="M6.52,7.5c.23,0,.46,.01,.68,.06,.22,.05,.44,.12,.65,.23l-.07-2.78c-.2-.12-.41-.22-.64-.29-.23-.07-.46-.1-.7-.09-.16,0-.33,.03-.48,.07-.16,.05-.32,.1-.47,.17l.08,2.82c.13-.06,.28-.11,.46-.15,.17-.03,.34-.05,.5-.06Zm1.73,.28c.21-.11,.42-.2,.63-.26,.21-.06,.43-.09,.66-.1,.16,0,.34,0,.51,.03,.18,.02,.33,.05,.45,.09l-.07-2.79c-.15-.07-.31-.12-.47-.15-.17-.03-.33-.04-.5-.04-.23,0-.46,.05-.68,.13-.22,.08-.42,.18-.61,.32l.07,2.78Zm-.18,.59c-.23-.16-.47-.28-.73-.36-.26-.08-.53-.12-.8-.11-.16,0-.32,.03-.47,.07-.15,.04-.3,.09-.45,.16-.1,.05-.2,.05-.29-.01-.09-.06-.14-.14-.15-.26l-.08-3.01c0-.07,.01-.13,.04-.18,.03-.06,.07-.1,.13-.13,.18-.09,.37-.16,.56-.21,.2-.05,.4-.07,.6-.08,.27,0,.54,.02,.8,.09s.5,.17,.73,.32c.22-.16,.45-.28,.7-.36s.51-.12,.78-.13c.2,0,.4,0,.6,.05s.39,.09,.57,.18c.06,.03,.11,.07,.14,.12,.03,.05,.05,.11,.05,.18l.08,3.01c0,.12-.04,.21-.14,.28-.1,.07-.19,.07-.29,.01-.15-.06-.3-.1-.45-.13-.15-.03-.31-.05-.47-.04-.27,0-.53,.06-.78,.16-.25,.1-.48,.23-.7,.4Z"/>
  </g>
  <g id="Layer_1" data-name="Layer 1">
    <g>
      <path class="cls-2" d="M1.13,10.2l.32,.96,.14-.42-.18-.54h.16l.32,.96,.32-.96h.03l-.39,1.17h-.05l-.19-.58-.2,.58h-.05l-.39-1.17h.16Z"/>
      <path class="cls-2" d="M3.1,10.2v.03h-.49v.48h.32v.03h-.32v.6h.57v.03h-.74v-1.17h.67Z"/>
      <path class="cls-2" d="M4.6,11.38c-.08,0-.16-.01-.24-.04-.08-.02-.15-.06-.21-.11s-.11-.11-.15-.18-.06-.16-.06-.27,.02-.19,.06-.27c.04-.08,.09-.14,.15-.18s.13-.08,.21-.11c.08-.02,.16-.03,.24-.03,.05,0,.09,0,.14,.01,.04,0,.09,.02,.13,.04v.02c-.05-.02-.1-.03-.14-.04s-.09-.01-.13-.01c-.08,0-.15,.02-.21,.05-.06,.03-.11,.08-.15,.13s-.07,.11-.09,.18-.03,.14-.03,.21,0,.14,.03,.21c.02,.07,.05,.13,.09,.18,.04,.05,.09,.1,.15,.13,.06,.03,.13,.05,.21,.05,.05,0,.09,0,.15-.01s.1-.02,.14-.04v.03s-.08,.03-.13,.04-.11,.01-.15,.01Z"/>
      <path class="cls-2" d="M5.62,11.38c-.1,0-.2-.02-.27-.05s-.14-.08-.2-.13-.09-.12-.12-.19c-.03-.07-.04-.15-.04-.22s.01-.15,.04-.22c.03-.07,.06-.13,.12-.19,.05-.05,.12-.1,.2-.13s.17-.05,.27-.05,.2,.02,.27,.05c.08,.03,.14,.08,.19,.13,.05,.06,.09,.12,.12,.19,.03,.07,.04,.15,.04,.22s-.01,.15-.04,.22c-.03,.07-.06,.13-.12,.19-.05,.05-.12,.1-.19,.13-.08,.03-.17,.05-.27,.05Zm0-1.16c-.08,0-.14,.02-.2,.05-.06,.03-.1,.07-.14,.13-.04,.05-.07,.11-.08,.18-.02,.07-.03,.14-.03,.21s0,.14,.03,.21c.02,.07,.05,.13,.08,.18,.04,.05,.08,.09,.14,.13,.06,.03,.12,.05,.2,.05s.14-.02,.2-.05c.06-.03,.1-.07,.14-.13,.04-.05,.07-.11,.08-.18,.02-.07,.03-.14,.03-.21s0-.14-.03-.21c-.02-.07-.05-.13-.08-.18-.04-.05-.08-.09-.14-.13-.06-.03-.12-.05-.2-.05Z"/>
      <path class="cls-2" d="M6.41,10.2h.17v.83c0,.1,.03,.18,.08,.24s.12,.09,.22,.09c.05,0,.09,0,.14-.02,.04-.02,.08-.04,.11-.07s.06-.06,.08-.1,.03-.08,.03-.13v-.83h.03v.83c0,.05,0,.1-.03,.14-.02,.04-.05,.08-.08,.11-.04,.03-.08,.05-.12,.07-.05,.02-.1,.03-.15,.03-.08,0-.15,0-.21-.03-.06-.02-.11-.04-.15-.08-.04-.03-.07-.07-.08-.12-.02-.04-.03-.09-.03-.14v-.82Z"/>
      <path class="cls-2" d="M7.62,10.2l.58,.89v-.89h.03v1.17h-.03l-.71-1.1v1.1h-.03v-1.17h.17Z"/>
      <path class="cls-2" d="M8.42,10.2h.79v.03h-.31v1.14h-.17v-1.14h-.31v-.03Z"/>
      <path class="cls-2" d="M10.23,10.2s.1,0,.16,0,.1,.01,.15,.03c.04,.02,.08,.04,.11,.07s.04,.08,.04,.13c0,.05-.01,.08-.04,.11s-.05,.05-.09,.07-.07,.03-.11,.04c-.04,0-.06,.01-.08,.02,.02,0,.04,0,.07,0,.03,0,.07,0,.1,.01,.04,0,.07,.02,.11,.03s.07,.03,.11,.06,.06,.06,.08,.09c.02,.04,.03,.08,.03,.14,0,.07-.02,.13-.06,.17s-.09,.08-.15,.1c-.06,.03-.12,.04-.2,.05s-.14,.01-.2,.01h-.28v-1.17h.24Zm0,.48c.07,0,.13,0,.17-.02s.07-.04,.1-.06c.02-.02,.04-.05,.04-.07,0-.03,0-.05,0-.07,0-.03,0-.06,0-.09,0-.03-.02-.05-.04-.07-.02-.02-.05-.04-.1-.05s-.1-.02-.17-.02h-.07v.45h.07Zm.04,.66c.1,0,.18,0,.23-.03,.06-.02,.1-.04,.13-.07s.05-.06,.06-.1c0-.04,.01-.07,.01-.11,0-.03,0-.06-.01-.1,0-.04-.03-.07-.06-.1-.03-.03-.07-.06-.13-.08s-.13-.03-.23-.03h-.11v.63h.11Z"/>
      <path class="cls-2" d="M11.73,10.2v.03h-.49v.48h.32v.03h-.32v.6h.57v.03h-.74v-1.17h.67Z"/>
      <path class="cls-2" d="M12,11.37l.39-1.17h.05l.39,1.17h-.16l-.13-.38h-.39l-.13,.38h-.03Zm.17-.41h.37l-.18-.55-.18,.55Z"/>
      <path class="cls-2" d="M13.18,10.2l.58,.89v-.89h.03v1.17h-.03l-.71-1.1v1.1h-.03v-1.17h.17Z"/>
      <path class="cls-2" d="M14.76,11.08s-.01,.09-.03,.13c-.02,.04-.05,.07-.09,.09-.04,.03-.08,.05-.13,.06s-.09,.02-.14,.02c-.03,0-.07,0-.1,0-.04,0-.07-.01-.11-.03-.03-.01-.07-.03-.09-.05-.03-.02-.05-.04-.08-.06l.03-.02s.05,.04,.08,.06c.03,.02,.06,.03,.09,.04,.03,.01,.06,.02,.1,.02,.03,0,.06,0,.09,0,.04,0,.08,0,.11-.02,.03,0,.06-.03,.09-.05,.03-.02,.05-.05,.06-.09s.02-.08,.02-.12c0-.04-.02-.09-.07-.13-.05-.04-.11-.08-.2-.13-.05-.03-.1-.05-.14-.07s-.08-.05-.11-.08c-.03-.03-.05-.06-.07-.09s-.03-.08-.03-.12c0-.04,.01-.08,.03-.11s.05-.06,.08-.08c.03-.02,.07-.04,.11-.05,.04-.01,.08-.02,.12-.02,.05,0,.1,0,.16,.02,.05,.02,.09,.04,.13,.07l-.02,.02s-.08-.05-.13-.07c-.05-.01-.1-.02-.14-.02-.03,0-.06,0-.09,.01-.03,0-.06,.02-.08,.04-.02,.02-.04,.04-.06,.07-.01,.03-.02,.06-.02,.11,0,.03,0,.05,.02,.07,.02,.02,.04,.04,.06,.06,.03,.02,.05,.03,.08,.05,.03,.01,.06,.03,.09,.04,.08,.04,.14,.07,.18,.1,.05,.03,.08,.06,.11,.09,.03,.03,.05,.06,.06,.1,.01,.03,.02,.08,.02,.12Z"/>
    </g>
    <g>
      <path class="cls-2" d="M1.6,12.67s.05,0,.08,0c.03,0,.05,0,.08,.02,.02,0,.04,.02,.06,.04,.02,.02,.02,.04,.02,.07,0,.03,0,.04-.02,.06-.01,.01-.03,.03-.05,.04-.02,0-.04,.02-.06,.02-.02,0-.03,0-.05,.01,0,0,.02,0,.04,0,.02,0,.03,0,.05,0,.02,0,.04,0,.06,.02,.02,0,.04,.02,.06,.03,.02,.01,.03,.03,.04,.05s.02,.04,.02,.07c0,.04-.01,.07-.03,.09-.02,.02-.05,.04-.08,.06-.03,.01-.07,.02-.1,.03s-.07,0-.11,0h-.15v-.62h.13Zm0,.25s.07,0,.09-.01c.02,0,.04-.02,.05-.03s.02-.03,.02-.04,0-.03,0-.04c0-.02,0-.03,0-.05s-.01-.03-.02-.04-.03-.02-.05-.03-.05,0-.09,0h-.04v.24h.04Zm.02,.35c.05,0,.09,0,.12-.02,.03-.01,.05-.02,.07-.04,.02-.02,.03-.03,.03-.05s0-.04,0-.06c0-.02,0-.03,0-.05s-.01-.04-.03-.05c-.02-.02-.04-.03-.07-.04-.03-.01-.07-.02-.12-.02h-.06v.33h.06Z"/>
      <path class="cls-2" d="M2.29,13.29s-.09,0-.13-.02c-.04-.01-.06-.04-.09-.06-.02-.03-.04-.05-.05-.09s-.02-.07-.02-.1,0-.07,.02-.1,.03-.06,.05-.09c.02-.03,.05-.04,.09-.06,.04-.02,.08-.02,.13-.02s.09,0,.12,.02c.04,.01,.06,.03,.09,.06,.02,.02,.04,.05,.05,.09s.02,.07,.02,.1,0,.07-.02,.1-.03,.06-.05,.09c-.02,.02-.05,.04-.09,.06s-.08,.02-.12,.02Zm0-.53s-.06,0-.09,.02c-.03,.01-.05,.03-.06,.06-.02,.02-.03,.05-.04,.08,0,.03-.01,.06-.01,.1s0,.07,.01,.1c0,.03,.02,.06,.04,.08,.02,.02,.04,.04,.06,.06,.03,.01,.06,.02,.09,.02s.06,0,.09-.02c.03-.01,.05-.03,.06-.06s.03-.05,.04-.08c0-.03,.01-.06,.01-.09s0-.06-.01-.1-.02-.06-.04-.08c-.02-.02-.04-.04-.06-.06-.03-.01-.06-.02-.09-.02Z"/>
      <path class="cls-2" d="M2.93,13.29s-.09,0-.13-.02c-.04-.01-.06-.04-.09-.06-.02-.03-.04-.05-.05-.09s-.02-.07-.02-.1,0-.07,.02-.1,.03-.06,.05-.09c.02-.03,.05-.04,.09-.06,.04-.02,.08-.02,.13-.02s.09,0,.12,.02c.04,.01,.06,.03,.09,.06,.02,.02,.04,.05,.05,.09s.02,.07,.02,.1,0,.07-.02,.1-.03,.06-.05,.09c-.02,.02-.05,.04-.09,.06s-.08,.02-.12,.02Zm0-.53s-.06,0-.09,.02c-.03,.01-.05,.03-.06,.06-.02,.02-.03,.05-.04,.08,0,.03-.01,.06-.01,.1s0,.07,.01,.1c0,.03,.02,.06,.04,.08,.02,.02,.04,.04,.06,.06,.03,.01,.06,.02,.09,.02s.06,0,.09-.02c.03-.01,.05-.03,.06-.06s.03-.05,.04-.08c0-.03,.01-.06,.01-.09s0-.06-.01-.1-.02-.06-.04-.08c-.02-.02-.04-.04-.06-.06-.03-.01-.06-.02-.09-.02Z"/>
      <path class="cls-2" d="M3.38,12.75v.3l.23-.3h.02l-.16,.22,.2,.31h-.08l-.16-.25-.04,.05v.21h-.08v-.53h.08Z"/>
      <path class="cls-2" d="M3.83,12.75v.3l.23-.3h.02l-.16,.22,.2,.31h-.08l-.16-.25-.04,.05v.21h-.08v-.53h.08Z"/>
      <path class="cls-2" d="M4.5,12.75h0s-.22,.01-.22,.01v.22h.15s-.15,.01-.15,.01v.27h.26s-.34,.01-.34,.01v-.53h.3Z"/>
      <path class="cls-2" d="M4.92,12.75h0s-.22,.01-.22,.01v.22h.15s-.15,.01-.15,.01v.27h.26s-.34,.01-.34,.01v-.53h.3Z"/>
      <path class="cls-2" d="M5.04,12.75h.17s.06,0,.09,0c.03,0,.05,.02,.07,.03,.02,.01,.04,.03,.05,.05s.02,.04,.02,.07,0,.05-.02,.07-.03,.04-.05,.05c-.02,.01-.04,.02-.07,.03-.03,0-.06,0-.09,0h-.09v.21h-.08v-.53Zm.12,.31s.06,0,.08,0c.02,0,.05-.01,.06-.03,.02-.01,.03-.03,.04-.05,0-.02,.01-.04,.01-.07s0-.05-.01-.07c0-.02-.02-.04-.04-.05-.02-.01-.04-.02-.06-.02-.02,0-.05,0-.08,0h-.04v.3h.04Z"/>
      <path class="cls-2" d="M5.53,13.29v-.53h.08v.53h-.08Z"/>
      <path class="cls-2" d="M5.77,12.75l.26,.4v-.4h.01v.53h-.01l-.32-.5v.5h-.01v-.53h.08Z"/>
      <path class="cls-2" d="M6.59,13.08v.18s-.06,.03-.09,.03-.05,0-.07,0c-.04,0-.07,0-.11-.02-.04-.01-.07-.03-.09-.05-.03-.02-.05-.05-.07-.08s-.03-.07-.03-.12,0-.09,.03-.12,.04-.06,.07-.08c.03-.02,.06-.04,.09-.05,.04,0,.07-.02,.11-.02,.02,0,.04,0,.06,0,.02,0,.04,0,.06,.02h0s-.04,0-.06,0c-.02,0-.04,0-.06,0-.04,0-.07,0-.09,.02-.03,.01-.05,.03-.07,.06-.02,.02-.03,.05-.04,.08,0,.03-.01,.06-.01,.09s0,.06,.01,.09,.02,.06,.04,.08c.02,.02,.04,.04,.07,.06,.03,.01,.06,.02,.1,.02,.02,0,.03,0,.04,0s.02,0,.04,0v-.17h-.05s.13-.01,.13-.01Z"/>
      <path class="cls-2" d="M7.34,13.29s-.03-.03-.06-.06c-.05,.05-.11,.07-.17,.07-.12,0-.18-.08-.18-.17,0-.08,.05-.14,.12-.17h0s-.05-.08-.05-.13c0-.07,.05-.15,.15-.15,.08,0,.13,.05,.13,.13,0,.06-.04,.11-.13,.16h0c.05,.06,.11,.13,.15,.17,.03-.04,.05-.1,.06-.17h.07c-.02,.09-.04,.17-.09,.22,.03,.03,.06,.07,.1,.11h-.09Zm-.09-.1s-.1-.11-.17-.19c-.03,.02-.08,.06-.08,.12,0,.07,.05,.12,.12,.12,.05,0,.09-.02,.12-.05Zm-.18-.36s.02,.08,.04,.11c.06-.03,.1-.07,.1-.12,0-.04-.02-.08-.07-.08s-.08,.04-.08,.09Z"/>
      <path class="cls-2" d="M7.88,12.67s.05,0,.08,0c.03,0,.05,0,.08,.02,.02,0,.04,.02,.06,.04s.02,.04,.02,.07c0,.03,0,.04-.02,.06-.01,.01-.03,.03-.05,.04-.02,0-.04,.02-.05,.02-.02,0-.03,0-.04,.01,0,0,.02,0,.04,0,.02,0,.03,0,.05,0,.02,0,.04,0,.06,.02,.02,0,.04,.02,.06,.03,.02,.01,.03,.03,.04,.05,.01,.02,.02,.04,.02,.07,0,.04,0,.07-.03,.09-.02,.02-.05,.04-.08,.06-.03,.01-.07,.02-.1,.03-.04,0-.07,0-.11,0h-.15v-.62h.13Zm0,.25s.07,0,.09-.01c.02,0,.04-.02,.05-.03,.01-.01,.02-.03,.02-.04s0-.03,0-.04c0-.02,0-.03,0-.05s-.01-.03-.02-.04c-.01-.01-.03-.02-.05-.03s-.05,0-.09,0h-.04v.24h.04Zm.02,.35c.05,0,.09,0,.12-.02,.03-.01,.05-.02,.07-.04s.03-.03,.03-.05c0-.02,0-.04,0-.06,0-.02,0-.03,0-.05,0-.02-.01-.04-.03-.05-.02-.02-.04-.03-.07-.04-.03-.01-.07-.02-.12-.02h-.06v.33h.06Z"/>
      <path class="cls-2" d="M8.29,12.75h.08v.38s.01,.08,.03,.11c.02,.03,.06,.04,.1,.04,.02,0,.04,0,.06-.01,.02,0,.04-.02,.05-.03s.03-.03,.04-.05,.01-.04,.01-.06v-.38h.01v.38s0,.05-.01,.07-.02,.04-.04,.05c-.02,.01-.03,.03-.06,.03-.02,0-.04,.01-.07,.01-.04,0-.07,0-.1-.01-.03,0-.05-.02-.07-.04-.02-.01-.03-.03-.04-.05,0-.02-.01-.04-.01-.07v-.37Z"/>
      <path class="cls-2" d="M9.12,13.15s0,.04-.02,.06c-.01,.02-.02,.03-.04,.04-.02,.01-.04,.02-.06,.03-.02,0-.04,0-.06,0-.01,0-.03,0-.05,0-.02,0-.03,0-.05-.01-.02,0-.03-.01-.04-.02-.01,0-.03-.02-.04-.03h.01s.02,.01,.03,.02,.03,.01,.04,.02c.01,0,.03,0,.04,.01,.01,0,.03,0,.04,0,.02,0,.03,0,.05,0,.01,0,.03-.01,.04-.02,.01,0,.02-.02,.03-.04s0-.03,0-.06-.01-.04-.03-.06-.05-.04-.09-.06c-.02-.01-.04-.02-.06-.03-.02-.01-.04-.02-.05-.03-.01-.01-.02-.03-.03-.04s-.01-.04-.01-.06c0-.02,0-.04,.01-.05,0-.01,.02-.03,.04-.04,.01-.01,.03-.02,.05-.02,.02,0,.04,0,.06,0,.02,0,.05,0,.07,.01,.02,0,.04,.02,.06,.03h0s-.04-.02-.06-.02c-.02,0-.04,0-.06,0-.01,0-.03,0-.04,0-.01,0-.03,0-.04,.02s-.02,.02-.03,.03c0,.01-.01,.03-.01,.05,0,.01,0,.02,.01,.03,0,0,.02,.02,.03,.03s.03,.01,.04,.02l.04,.02s.06,.03,.08,.04c.02,.01,.04,.03,.05,.04s.02,.03,.03,.04c0,.02,0,.04,0,.06Z"/>
      <path class="cls-2" d="M9.21,13.29v-.53h.08v.53h-.08Z"/>
      <path class="cls-2" d="M9.45,12.75l.26,.4v-.4h.01v.53h-.01l-.32-.5v.5h-.01v-.53h.08Z"/>
      <path class="cls-2" d="M10.12,12.75h0s-.22,.01-.22,.01v.22h.15s-.15,.01-.15,.01v.27h.26s-.34,.01-.34,.01v-.53h.3Z"/>
      <path class="cls-2" d="M10.55,13.15s0,.04-.02,.06c-.01,.02-.02,.03-.04,.04-.02,.01-.04,.02-.06,.03s-.04,0-.06,0c-.01,0-.03,0-.05,0-.02,0-.03,0-.05-.01-.02,0-.03-.01-.04-.02-.01,0-.03-.02-.04-.03h.01s.02,.01,.03,.02,.03,.01,.04,.02c.01,0,.03,0,.04,.01,.01,0,.03,0,.04,0,.02,0,.03,0,.05,0,.01,0,.03-.01,.04-.02,.01,0,.02-.02,.03-.04s0-.03,0-.06-.01-.04-.03-.06-.05-.04-.09-.06c-.02-.01-.04-.02-.06-.03-.02-.01-.04-.02-.05-.03-.01-.01-.02-.03-.03-.04s-.01-.04-.01-.06c0-.02,0-.04,.01-.05,0-.01,.02-.03,.04-.04,.01-.01,.03-.02,.05-.02,.02,0,.04,0,.06,0,.02,0,.05,0,.07,.01s.04,.02,.06,.03h0s-.04-.02-.06-.02c-.02,0-.04,0-.06,0-.01,0-.03,0-.04,0-.01,0-.03,0-.04,.02s-.02,.02-.03,.03c0,.01-.01,.03-.01,.05,0,.01,0,.02,.01,.03,0,0,.02,.02,.03,.03s.03,.01,.04,.02l.04,.02s.06,.03,.08,.04c.02,.01,.04,.03,.05,.04s.02,.03,.03,.04c0,.02,0,.04,0,.06Z"/>
      <path class="cls-2" d="M10.95,13.15s0,.04-.02,.06c-.01,.02-.02,.03-.04,.04-.02,.01-.04,.02-.06,.03s-.04,0-.06,0c-.01,0-.03,0-.05,0-.02,0-.03,0-.05-.01-.02,0-.03-.01-.04-.02-.01,0-.03-.02-.04-.03h.01s.02,.01,.03,.02,.03,.01,.04,.02c.01,0,.03,0,.04,.01,.01,0,.03,0,.04,0,.02,0,.03,0,.05,0,.01,0,.03-.01,.04-.02,.01,0,.02-.02,.03-.04s0-.03,0-.06-.01-.04-.03-.06-.05-.04-.09-.06c-.02-.01-.04-.02-.06-.03-.02-.01-.04-.02-.05-.03-.01-.01-.02-.03-.03-.04s-.01-.04-.01-.06c0-.02,0-.04,.01-.05,0-.01,.02-.03,.04-.04,.01-.01,.03-.02,.05-.02,.02,0,.04,0,.06,0,.02,0,.05,0,.07,.01s.04,.02,.06,.03h0s-.04-.02-.06-.02c-.02,0-.04,0-.06,0-.01,0-.03,0-.04,0-.01,0-.03,0-.04,.02s-.02,.02-.03,.03c0,.01-.01,.03-.01,.05,0,.01,0,.02,.01,.03,0,0,.02,.02,.03,.03s.03,.01,.04,.02l.04,.02s.06,.03,.08,.04c.02,.01,.04,.03,.05,.04s.02,.03,.03,.04c0,.02,0,.04,0,.06Z"/>
      <path class="cls-2" d="M11.71,13.13s0,.05-.02,.07c-.01,.02-.03,.04-.05,.05-.02,.01-.04,.02-.07,.03-.03,0-.05,.01-.08,.01-.02,0-.04,0-.05,0-.02,0-.04,0-.06-.01-.02,0-.04-.01-.05-.02s-.03-.02-.04-.03h.01s.02,.02,.04,.02c.01,0,.03,.02,.05,.02,.02,0,.03,0,.05,.01,.02,0,.03,0,.05,0,.02,0,.04,0,.06,0,.02,0,.03-.01,.05-.03,.01-.01,.02-.03,.03-.04s.01-.04,.01-.07c0-.02-.01-.05-.04-.07s-.06-.04-.11-.07c-.03-.01-.05-.03-.07-.04-.02-.01-.04-.02-.06-.04-.02-.01-.03-.03-.04-.05,0-.02-.01-.04-.01-.07,0-.02,0-.04,.02-.06,.01-.02,.03-.03,.04-.04s.04-.02,.06-.03c.02,0,.04,0,.07,0,.03,0,.05,0,.08,.01,.03,0,.05,.02,.07,.04h-.01s-.04-.02-.07-.03c-.03,0-.05-.01-.08-.01-.02,0-.03,0-.05,0s-.03,.01-.04,.02-.02,.02-.03,.04c0,.02-.01,.04-.01,.06,0,.01,0,.03,.01,.04,0,.01,.02,.02,.03,.03s.03,.02,.04,.03,.03,.02,.05,.02c.04,.02,.07,.04,.1,.05s.04,.03,.06,.05c.01,.02,.02,.03,.03,.05,0,.02,0,.04,0,.06Z"/>
      <path class="cls-2" d="M12.1,12.75h0s-.22,.01-.22,.01v.22h.15s-.15,.01-.15,.01v.27h.26s-.34,.01-.34,.01v-.53h.3Z"/>
      <path class="cls-2" d="M12.38,12.75s.06,0,.08,0,.05,.01,.07,.03c.02,.01,.03,.03,.04,.05,0,.02,.01,.04,.01,.07,0,.04-.01,.07-.03,.1-.02,.02-.05,.04-.09,.05l.14,.23h-.08l-.14-.22h-.08v.22h-.08v-.53h.15Zm-.07,.01v.29h.03s.05,0,.07,0c.02,0,.04-.01,.06-.02,.02-.01,.03-.03,.04-.04s.01-.04,.01-.07,0-.05-.01-.07c0-.02-.02-.03-.04-.04-.02-.01-.03-.02-.06-.02-.02,0-.05,0-.07,0h-.03Z"/>
      <path class="cls-2" d="M12.64,12.75h.07l.15,.44,.15-.44h.01l-.18,.53h-.02l-.18-.53Z"/>
      <path class="cls-2" d="M13.11,13.29v-.53h.08v.53h-.08Z"/>
      <path class="cls-2" d="M13.57,13.29s-.07,0-.11-.02-.07-.03-.09-.05c-.03-.02-.05-.05-.07-.08-.02-.03-.03-.07-.03-.12s0-.09,.03-.12c.02-.03,.04-.06,.07-.08,.03-.02,.06-.04,.09-.05,.04,0,.07-.02,.11-.02,.02,0,.04,0,.06,0,.02,0,.04,0,.06,.02h0s-.04,0-.06,0c-.02,0-.04,0-.06,0-.04,0-.07,0-.09,.02-.03,.01-.05,.03-.07,.06s-.03,.05-.04,.08c0,.03-.01,.06-.01,.09s0,.06,.01,.09,.02,.06,.04,.08c.02,.02,.04,.04,.07,.06s.06,.02,.1,.02c.02,0,.04,0,.07,0,.02,0,.04,0,.07-.02h0s-.04,.03-.07,.03-.05,0-.07,0Z"/>
      <path class="cls-2" d="M14.1,12.75h0s-.22,.01-.22,.01v.22h.15s-.15,.01-.15,.01v.27h.26s-.34,.01-.34,.01v-.53h.3Z"/>
      <path class="cls-2" d="M14.53,13.15s0,.04-.02,.06c-.01,.02-.02,.03-.04,.04-.02,.01-.04,.02-.06,.03s-.04,0-.06,0c-.01,0-.03,0-.05,0-.02,0-.03,0-.05-.01-.02,0-.03-.01-.04-.02-.01,0-.03-.02-.04-.03h.01s.02,.01,.03,.02,.03,.01,.04,.02c.01,0,.03,0,.04,.01,.01,0,.03,0,.04,0,.02,0,.03,0,.05,0,.01,0,.03-.01,.04-.02,.01,0,.02-.02,.03-.04s0-.03,0-.06-.01-.04-.03-.06-.05-.04-.09-.06c-.02-.01-.04-.02-.06-.03-.02-.01-.04-.02-.05-.03-.01-.01-.02-.03-.03-.04s-.01-.04-.01-.06c0-.02,0-.04,.01-.05,0-.01,.02-.03,.04-.04,.01-.01,.03-.02,.05-.02,.02,0,.04,0,.06,0,.02,0,.05,0,.07,.01s.04,.02,.06,.03h0s-.04-.02-.06-.02c-.02,0-.04,0-.06,0-.01,0-.03,0-.04,0-.01,0-.03,0-.04,.02s-.02,.02-.03,.03c0,.01-.01,.03-.01,.05,0,.01,0,.02,.01,.03,0,0,.02,.02,.03,.03s.03,.01,.04,.02l.04,.02s.06,.03,.08,.04c.02,.01,.04,.03,.05,.04s.02,.03,.03,.04c0,.02,0,.04,0,.06Z"/>
    </g>
  </g>
</svg>