<?xml version="1.0" encoding="UTF-8"?>
<svg xmlns="http://www.w3.org/2000/svg" viewBox="0 0 16.08 16.08">
  <defs>
    <style>
      .cls-1 {
        fill: #5c697f;
      }

      .cls-2 {
        fill: #f5cc76;
      }
    </style>
  </defs>
  <g id="Layer_2" data-name="Layer 2">
    <rect class="cls-1" width="16.08" height="16.08"/>
    <path class="cls-2" d="M6.52,7.5c.23,0,.46,.01,.68,.06,.22,.05,.44,.12,.65,.23l-.07-2.78c-.2-.12-.41-.22-.64-.29-.23-.07-.46-.1-.7-.09-.16,0-.33,.03-.48,.07-.16,.05-.32,.1-.47,.17l.08,2.82c.13-.06,.28-.11,.46-.15,.17-.03,.34-.05,.5-.06Zm1.73,.28c.21-.11,.42-.2,.63-.26,.21-.06,.43-.09,.66-.1,.16,0,.34,0,.51,.03,.18,.02,.33,.05,.45,.09l-.07-2.79c-.15-.07-.31-.12-.47-.15-.17-.03-.33-.04-.5-.04-.23,0-.46,.05-.68,.13-.22,.08-.42,.18-.61,.32l.07,2.78Zm-.18,.59c-.23-.16-.47-.28-.73-.36-.26-.08-.53-.12-.8-.11-.16,0-.32,.03-.47,.07-.15,.04-.3,.09-.45,.16-.1,.05-.2,.05-.29-.01-.09-.06-.14-.14-.15-.26l-.08-3.01c0-.07,.01-.13,.04-.18,.03-.06,.07-.1,.13-.13,.18-.09,.37-.16,.56-.21,.2-.05,.4-.07,.6-.08,.27,0,.54,.02,.8,.09s.5,.17,.73,.32c.22-.16,.45-.28,.7-.36s.51-.12,.78-.13c.2,0,.4,0,.6,.05s.39,.09,.57,.18c.06,.03,.11,.07,.14,.12,.03,.05,.05,.11,.05,.18l.08,3.01c0,.12-.04,.21-.14,.28-.1,.07-.19,.07-.29,.01-.15-.06-.3-.1-.45-.13-.15-.03-.31-.05-.47-.04-.27,0-.53,.06-.78,.16-.25,.1-.48,.23-.7,.4Z"/>
    <g>
      <path class="cls-2" d="M5.02,9.54c-.09,0-.1,.02-.13,.11-.03,.09-.13,.34-.2,.55h-.06c-.06-.16-.13-.33-.2-.49-.07,.17-.13,.33-.19,.49h-.06c-.05-.16-.13-.37-.19-.56-.03-.08-.05-.1-.12-.1v-.04h.34v.04c-.09,0-.09,.02-.08,.08,.04,.13,.09,.26,.13,.38,.06-.16,.13-.32,.18-.49h.06c.07,.17,.13,.33,.2,.49,.05-.12,.11-.3,.13-.37,.02-.06,0-.08-.1-.09v-.04h.29v.04Z"/>
      <path class="cls-2" d="M5.41,10.08c-.07,.09-.17,.11-.21,.11-.16,0-.25-.1-.25-.23,0-.07,.04-.14,.09-.19,.05-.05,.12-.08,.19-.08,.11,0,.19,.08,.19,.17,0,.02,0,.03-.02,.04-.02,0-.19,.01-.31,.02,0,.12,.08,.18,.17,.18,.05,0,.09-.02,.14-.05l.02,.03Zm-.22-.34c-.05,0-.1,.05-.11,.13,.06,0,.11,0,.17,0,.02,0,.03,0,.03-.02,0-.05-.03-.11-.09-.11Z"/>
      <path class="cls-2" d="M6.51,10.01c-.02,.05-.05,.13-.07,.17-.03,0-.13,.03-.22,.03-.31,0-.45-.18-.45-.35,0-.22,.19-.36,.47-.36,.1,0,.19,.02,.23,.03,0,.05,.01,.12,.02,.17h-.04c-.02-.07-.06-.11-.12-.13-.03-.01-.08-.02-.11-.02-.18,0-.28,.13-.28,.3,0,.2,.12,.33,.29,.33,.11,0,.17-.05,.24-.16h.04Z"/>
      <path class="cls-2" d="M6.88,9.71c.16,0,.27,.11,.27,.24,0,.17-.14,.25-.28,.25-.18,0-.28-.12-.28-.24,0-.17,.15-.25,.28-.25Zm-.01,.04c-.06,0-.12,.05-.12,.18s.06,.23,.14,.23c.06,0,.11-.03,.11-.18,0-.14-.05-.23-.13-.23Z"/>
      <path class="cls-2" d="M7.83,10.16c-.07,0-.14,.02-.21,.04v-.08c-.05,.04-.11,.08-.17,.08-.09,0-.16-.05-.16-.15v-.21c0-.05,0-.06-.04-.06h-.03v-.04c.06,0,.15,0,.21-.02,0,.04,0,.09,0,.16v.15c0,.08,.04,.1,.09,.1,.04,0,.07,0,.1-.04v-.25c0-.05,0-.06-.04-.07h-.04v-.04c.07,0,.17-.01,.22-.02v.35c0,.05,0,.06,.05,.07h.03v.03Z"/>
      <path class="cls-2" d="M8.23,10.18v-.03c.06,0,.06-.01,.06-.08v-.18c0-.08-.04-.11-.09-.11-.04,0-.07,.02-.11,.04v.25c0,.07,0,.07,.06,.08v.03h-.27v-.03c.07,0,.08-.01,.08-.08v-.22c0-.06,0-.07-.07-.08v-.03c.07,0,.14-.02,.2-.04,0,.02,0,.05,0,.08,.02-.01,.05-.03,.08-.05,.04-.02,.06-.03,.1-.03,.1,0,.16,.06,.16,.17v.2c0,.07,0,.07,.07,.08v.03h-.27Z"/>
      <path class="cls-2" d="M8.8,10.18s-.04,.01-.05,.01c-.09,0-.14-.04-.14-.13v-.3h-.08s.03-.05,.03-.05h.05v-.09s.09-.05,.12-.08h.02s0,.1,0,.17h.13s0,.04,0,.05h-.12v.26c0,.08,.04,.09,.06,.09,.02,0,.04,0,.06-.01v.03s-.08,.04-.08,.04Z"/>
      <path class="cls-2" d="M9.67,9.81c.12,.02,.21,.07,.21,.17,0,.07-.05,.13-.12,.16-.06,.03-.13,.04-.22,.04h-.32v-.04c.1,0,.1-.02,.1-.1v-.41c0-.09-.01-.1-.1-.1v-.04h.35c.09,0,.15,.01,.19,.04,.04,.03,.07,.06,.07,.12,0,.09-.09,.14-.17,.16Zm-.15-.01c.12,0,.17-.04,.17-.12,0-.09-.06-.13-.15-.13-.03,0-.05,0-.06,0-.01,0-.01,.02-.01,.04v.2h.05Zm-.05,.25c0,.08,.03,.1,.11,.1,.08,0,.15-.05,.15-.15s-.07-.15-.21-.15h-.05v.21Z"/>
      <path class="cls-2" d="M10.44,10.08c-.08,.09-.17,.11-.21,.11-.16,0-.25-.1-.25-.23,0-.07,.04-.14,.09-.19,.05-.05,.12-.08,.18-.08,.11,0,.19,.08,.19,.17,0,.02,0,.03-.02,.04-.02,0-.19,.01-.31,.02,0,.12,.08,.18,.17,.18,.05,0,.09-.02,.14-.05l.02,.03Zm-.21-.34c-.05,0-.1,.05-.11,.13,.06,0,.11,0,.17,0,.02,0,.03,0,.03-.02,0-.05-.03-.11-.08-.11Z"/>
      <path class="cls-2" d="M10.91,10.2s-.05,0-.07-.02c-.02-.01-.02-.03-.03-.04-.05,.03-.11,.06-.13,.06-.1,0-.16-.07-.16-.13,0-.05,.03-.08,.09-.1,.07-.02,.17-.05,.19-.07v-.04c0-.06-.03-.1-.09-.1-.02,0-.04,0-.05,.02-.01,.02-.02,.04-.03,.07,0,.02-.02,.03-.05,.03-.03,0-.07-.02-.07-.05,0-.02,.01-.03,.04-.05,.05-.03,.12-.06,.19-.07,.04,0,.08,0,.12,.03,.05,.03,.06,.07,.06,.13v.19s.02,.06,.04,.06c.01,0,.03,0,.04,0v.03s-.11,.06-.11,.06Zm-.1-.27s-.06,.03-.08,.04c-.04,.02-.06,.04-.06,.07,0,.06,.05,.08,.08,.08,.02,0,.05,0,.07-.02v-.17Z"/>
      <path class="cls-2" d="M11.42,10.18v-.03c.06,0,.06-.01,.06-.08v-.18c0-.08-.04-.11-.09-.11-.04,0-.07,.02-.11,.04v.25c0,.07,0,.07,.06,.08v.03h-.27v-.03c.07,0,.08-.01,.08-.08v-.22c0-.06,0-.07-.07-.08v-.03c.07,0,.14-.02,.2-.04,0,.02,0,.05,0,.08,.02-.01,.05-.03,.08-.05,.04-.02,.06-.03,.1-.03,.1,0,.16,.06,.16,.17v.2c0,.07,0,.07,.07,.08v.03h-.27Z"/>
      <path class="cls-2" d="M12.07,9.85c-.03-.07-.07-.11-.13-.11-.04,0-.07,.02-.07,.06,0,.04,.03,.06,.1,.09,.1,.04,.16,.07,.16,.15,0,.1-.11,.15-.21,.15-.06,0-.12-.02-.15-.03,0-.03-.02-.09-.02-.13h.04c.02,.06,.07,.12,.15,.12,.05,0,.07-.03,.07-.06,0-.04-.02-.06-.09-.09-.08-.03-.16-.07-.16-.15s.08-.14,.2-.14c.06,0,.1,.01,.12,.02,0,.03,.01,.09,.02,.12h-.04Z"/>
    </g>
  </g>
  <g id="Layer_1" data-name="Layer 1">
    <g>
      <path class="cls-2" d="M3.42,11.59c.08,.01,.14,.05,.14,.12,0,.05-.03,.09-.07,.11-.04,.02-.09,.03-.13,.03h-.18c.07-.02,.07-.02,.07-.08v-.32c0-.06,0-.06-.07-.07h0s.2,0,.2,0c.06,0,.09,.01,.12,.03,.03,.02,.04,.05,.04,.08,0,.07-.06,.1-.11,.11Zm-.07,0c.09,0,.12-.04,.12-.1,0-.05-.03-.1-.11-.1-.02,0-.03,0-.04,0-.01,0-.02,.01-.02,.04v.15h.05Zm-.05,.19c0,.06,.02,.07,.08,.07,.07,0,.12-.04,.12-.12s-.05-.12-.15-.12h-.05v.17Z"/>
      <path class="cls-2" d="M3.8,11.54c.1,0,.16,.07,.16,.16,0,.11-.09,.17-.16,.17-.1,0-.17-.08-.17-.16,0-.12,.1-.17,.17-.17Zm0,.02c-.06,0-.1,.06-.1,.13,0,.1,.05,.17,.11,.17,.05,0,.09-.04,.09-.14,0-.08-.04-.16-.11-.16Z"/>
      <path class="cls-2" d="M4.18,11.54c.1,0,.16,.07,.16,.16,0,.11-.09,.17-.16,.17-.1,0-.17-.08-.17-.16,0-.12,.1-.17,.17-.17Zm0,.02c-.06,0-.1,.06-.1,.13,0,.1,.05,.17,.11,.17,.05,0,.09-.04,.09-.14,0-.08-.04-.16-.11-.16Z"/>
      <path class="cls-2" d="M4.75,11.86c-.06,0-.08,0-.1,0-.03-.04-.12-.13-.13-.14-.01-.02-.02-.02-.02-.02,0,0,0,0-.01,0v.09c0,.05,0,.06,.05,.06h0s-.16,0-.16,0h0s.05-.02,.05-.07v-.37c0-.06,0-.06-.05-.06h0s.08-.02,.11-.03c0,.02,0,.07,0,.1v.27s.03-.01,.05-.03c.02-.01,.05-.05,.07-.07,.03-.03,.01-.03-.03-.04h0s.15-.02,.15-.02h0s-.06,.02-.1,.06c-.01,.01-.05,.05-.07,.07,.01,.02,.09,.11,.12,.14,.04,.04,.05,.04,.08,.04h0Z"/>
      <path class="cls-2" d="M5.1,11.86c-.06,0-.08,0-.1,0-.03-.04-.12-.13-.13-.14-.01-.02-.02-.02-.02-.02,0,0,0,0-.01,0v.09c0,.05,0,.06,.05,.06h0s-.16,0-.16,0h0s.05-.02,.05-.07v-.37c0-.06,0-.06-.05-.06h0s.08-.02,.11-.03c0,.02,0,.07,0,.1v.27s.03-.01,.05-.03c.02-.01,.05-.05,.07-.07,.03-.03,.01-.03-.03-.04h0s.15-.02,.15-.02h0s-.06,.02-.1,.06c-.01,.01-.05,.05-.07,.07,.01,.02,.09,.11,.12,.14,.04,.04,.05,.04,.08,.04h0Z"/>
      <path class="cls-2" d="M5.38,11.79c-.05,.05-.1,.07-.12,.07-.1,0-.15-.07-.15-.16,0-.05,.02-.09,.05-.12,.03-.03,.07-.05,.11-.05,.07,0,.11,.05,.11,.1,0,.01,0,.02,0,.02-.02,0-.11,0-.22,.01,0,.12,.07,.16,.13,.16,.03,0,.06-.01,.09-.04h0Zm-.13-.23s-.08,.03-.09,.09c.05,0,.14,0,.16,0,0,0,0,0,0-.01,0-.04-.02-.08-.08-.08Z"/>
      <path class="cls-2" d="M5.71,11.79c-.05,.05-.1,.07-.12,.07-.1,0-.15-.07-.15-.16,0-.05,.02-.09,.05-.12,.03-.03,.07-.05,.11-.05,.07,0,.11,.05,.11,.1,0,.01,0,.02,0,.02-.02,0-.11,0-.22,.01,0,.12,.07,.16,.13,.16,.03,0,.06-.01,.09-.04h0Zm-.13-.23s-.08,.03-.09,.09c.05,0,.14,0,.16,0,0,0,0,0,0-.01,0-.04-.02-.08-.08-.08Z"/>
      <path class="cls-2" d="M5.76,11.56s.08-.02,.1-.03c0,.01,0,.04,0,.06,.02,0,.05-.03,.06-.04,.02,0,.04-.02,.05-.02,.09,0,.13,.07,.13,.13,0,.11-.09,.18-.19,.2-.02,0-.04,0-.05-.01v.11c0,.07,0,.07,.06,.08h0s-.17,0-.17,0h0s.06-.02,.06-.08v-.35s0-.05-.05-.06h0Zm.1,.24s.05,.03,.08,.03c.07,0,.11-.04,.11-.14,0-.08-.05-.13-.11-.13-.03,0-.06,.01-.08,.03v.21Z"/>
      <path class="cls-2" d="M6.15,11.86h0c.05-.02,.05-.02,.05-.07v-.15c0-.05,0-.05-.05-.06h0s.07-.02,.1-.04c0,.02,0,.06,0,.09v.16c0,.06,0,.06,.05,.07h0s-.16,0-.16,0Zm.08-.42s-.03-.01-.03-.03c0-.02,.02-.03,.03-.03s.03,.01,.03,.03c0,.02-.02,.03-.03,.03Z"/>
      <path class="cls-2" d="M6.56,11.86h0c.05-.01,.05-.02,.05-.08v-.12s-.02-.09-.07-.09c-.03,0-.06,.02-.09,.04v.17c0,.05,0,.06,.05,.07h0s-.16,0-.16,0h0c.05-.02,.05-.02,.05-.07v-.15s0-.05-.04-.06h0s.07-.02,.1-.04c0,.01,0,.03,0,.06,.02-.01,.04-.02,.06-.04,.02-.01,.04-.02,.06-.02,.06,0,.1,.04,.1,.11v.14c0,.05,0,.06,.05,.06h0s-.15,0-.15,0Z"/>
      <path class="cls-2" d="M6.86,11.76s-.03,.03-.03,.04c0,.02,.02,.03,.05,.03h.08c.06,0,.12,.02,.12,.09,0,.07-.09,.14-.19,.14-.09,0-.14-.05-.14-.09,0-.02,0-.03,.02-.04,.01-.01,.05-.04,.07-.06-.03,0-.05-.02-.06-.04,0,0,0-.02,0-.03,.02-.01,.06-.04,.07-.05h.01Zm.04,.01c-.08,0-.13-.05-.13-.11,0-.08,.07-.12,.14-.12,.02,0,.05,0,.07,.02,.03,0,.08,0,.1-.02h0s-.02,.03-.03,.04c-.01,0-.03,0-.05,0,.02,.02,.03,.04,.03,.07,0,.08-.08,.12-.13,.12Zm.02,.11c-.05,0-.06,0-.07,0-.04,.02-.05,.04-.05,.07,0,.05,.05,.08,.12,.08,.1,0,.11-.05,.11-.09,0-.03-.01-.05-.04-.06-.02,0-.04,0-.07,0Zm-.03-.33s-.07,.03-.07,.1,.03,.11,.08,.11c.04,0,.07-.03,.07-.1s-.03-.11-.08-.11Z"/>
      <path class="cls-2" d="M7.77,11.55c-.05,0-.06,.02-.09,.06-.03,.04-.05,.07-.08,.11,.03,.03,.12,.11,.14,.15h0s-.08-.02-.09-.03c-.01-.01-.05-.05-.08-.08-.06,.07-.11,.1-.16,.1-.1,0-.15-.07-.15-.13,0-.07,.06-.1,.12-.15-.04-.04-.06-.07-.06-.11,0-.07,.06-.12,.12-.12,.06,0,.11,.04,.11,.1,0,.03-.02,.05-.03,.07-.02,.01-.04,.03-.07,.05,.03,.02,.1,.08,.15,.13,.02-.03,.04-.06,.06-.09,.02-.04,.02-.05-.04-.06h0s.16,0,.16,0h0Zm-.34,.28c.06,0,.09-.03,.14-.08-.05-.05-.1-.1-.17-.15-.06,.04-.08,.08-.08,.11,0,.08,.06,.11,.11,.11Zm0-.45s-.06,.03-.06,.08c0,.04,.03,.07,.07,.11,.04-.03,.06-.06,.07-.1,0-.05-.03-.09-.07-.09Z"/>
      <path class="cls-2" d="M8.21,11.59c.08,.01,.14,.05,.14,.12,0,.05-.03,.09-.07,.11-.04,.02-.08,.03-.13,.03h-.18c.07-.02,.07-.02,.07-.08v-.32c0-.06,0-.06-.07-.07h0s.2,0,.2,0c.06,0,.09,.01,.12,.03,.03,.02,.04,.05,.04,.08,0,.07-.06,.1-.11,.11Zm-.07,0c.09,0,.12-.04,.12-.1,0-.05-.03-.1-.11-.1-.02,0-.03,0-.04,0-.01,0-.02,.01-.02,.04v.15h.05Zm-.05,.19c0,.06,.02,.07,.08,.07,.07,0,.12-.04,.12-.12s-.05-.12-.15-.12h-.05v.17Z"/>
      <path class="cls-2" d="M8.76,11.84s-.08,.02-.11,.03c0-.01,0-.04,0-.06-.04,.04-.08,.06-.11,.06-.05,0-.09-.03-.09-.1v-.16s-.01-.04-.03-.04h-.01s.07-.02,.1-.02c0,.01,0,.04,0,.1v.1c0,.07,.03,.08,.07,.08,.03,0,.06,0,.09-.04v-.18s0-.05-.04-.05h-.02s.08-.02,.11-.02v.24s0,.04,.03,.05h.02Z"/>
      <path class="cls-2" d="M8.98,11.62c-.01-.05-.05-.07-.08-.07-.03,0-.05,.02-.05,.05,0,.04,.03,.05,.07,.07,.06,.03,.09,.05,.09,.1,0,.06-.06,.1-.12,.1-.03,0-.06,0-.08-.01,0-.01-.01-.06-.02-.08h0s.04,.08,.1,.08c.04,0,.06-.02,.06-.05,0-.04-.02-.05-.06-.08-.05-.02-.09-.05-.09-.1,0-.05,.04-.09,.11-.09,.03,0,.05,0,.07,0,0,.01,0,.06,0,.08h-.01Z"/>
      <path class="cls-2" d="M9.05,11.86h0s.05-.02,.05-.07v-.15c0-.05,0-.05-.05-.06h0s.07-.02,.1-.04c0,.02,0,.06,0,.09v.16c0,.06,0,.06,.05,.07h0s-.16,0-.16,0Zm.08-.42s-.03-.01-.03-.03c0-.02,.02-.03,.03-.03,.02,0,.03,.01,.03,.03,0,.02-.02,.03-.03,.03Z"/>
      <path class="cls-2" d="M9.46,11.86h0s.05-.02,.05-.08v-.12s-.02-.09-.07-.09c-.04,0-.07,.02-.09,.04v.17c0,.05,0,.06,.05,.07h0s-.16,0-.16,0h0c.05-.02,.05-.02,.05-.07v-.15s0-.05-.04-.06h0s.07-.02,.1-.04c0,.01,0,.03,0,.06,.02-.01,.04-.02,.05-.04,.02-.01,.04-.02,.06-.02,.06,0,.1,.04,.1,.11v.14c0,.05,0,.06,.05,.06h0s-.15,0-.15,0Z"/>
      <path class="cls-2" d="M9.93,11.79c-.05,.05-.1,.07-.12,.07-.1,0-.15-.07-.15-.16,0-.05,.02-.09,.05-.12,.03-.03,.07-.05,.11-.05,.07,0,.11,.05,.11,.1,0,.01,0,.02,0,.02-.01,0-.11,0-.22,.01,0,.12,.07,.16,.13,.16,.03,0,.06-.01,.09-.04h0Zm-.13-.23s-.08,.03-.09,.09c.05,0,.14,0,.16,0,0,0,0,0,0-.01,0-.04-.02-.08-.08-.08Z"/>
      <path class="cls-2" d="M10.17,11.62c-.01-.05-.05-.07-.08-.07-.03,0-.05,.02-.05,.05,0,.04,.03,.05,.07,.07,.06,.03,.09,.05,.09,.1,0,.06-.06,.1-.12,.1-.03,0-.06,0-.08-.01,0-.01-.01-.06-.02-.08h0s.04,.08,.1,.08c.04,0,.06-.02,.06-.05,0-.04-.02-.05-.06-.08-.05-.02-.09-.05-.09-.1,0-.05,.04-.09,.11-.09,.03,0,.05,0,.07,0,0,.01,0,.06,0,.08h-.01Z"/>
      <path class="cls-2" d="M10.44,11.62c-.01-.05-.05-.07-.08-.07-.03,0-.05,.02-.05,.05,0,.04,.03,.05,.07,.07,.06,.03,.09,.05,.09,.1,0,.06-.06,.1-.12,.1-.03,0-.06,0-.08-.01,0-.01-.01-.06-.02-.08h0s.04,.08,.1,.08c.04,0,.06-.02,.06-.05,0-.04-.02-.05-.06-.08-.05-.02-.09-.05-.09-.1,0-.05,.04-.09,.11-.09,.03,0,.05,0,.07,0,0,.01,0,.06,0,.08h-.01Z"/>
      <path class="cls-2" d="M10.93,11.47c-.01-.05-.04-.09-.11-.09-.06,0-.09,.04-.09,.09,0,.06,.04,.08,.1,.12,.06,.03,.13,.07,.13,.15s-.07,.14-.17,.14c-.04,0-.09-.01-.11-.02,0-.02-.02-.09-.02-.1h.01s.05,.11,.13,.11c.07,0,.1-.05,.1-.1,0-.06-.04-.09-.1-.12-.06-.03-.13-.07-.13-.15,0-.07,.06-.12,.15-.12,.05,0,.08,0,.1,.01,0,.03,0,.06,.01,.1h-.01Z"/>
      <path class="cls-2" d="M11.3,11.79c-.05,.05-.1,.07-.12,.07-.1,0-.15-.07-.15-.16,0-.05,.02-.09,.05-.12,.03-.03,.07-.05,.11-.05,.07,0,.11,.05,.11,.1,0,.01,0,.02,0,.02-.01,0-.11,0-.22,.01,0,.12,.07,.16,.13,.16,.03,0,.06-.01,.09-.04h0Zm-.13-.23s-.08,.03-.09,.09c.05,0,.14,0,.16,0,0,0,0,0,0-.01,0-.04-.02-.08-.08-.08Z"/>
      <path class="cls-2" d="M11.52,11.86h-.17s.05-.02,.05-.07v-.15s0-.05-.04-.06h0s.07-.02,.1-.04c0,.01,0,.05,0,.08,.02-.03,.06-.08,.1-.08,.02,0,.04,.01,.04,.03,0,.01,0,.03-.02,.03,0,0-.01,0-.02,0-.01-.01-.02-.02-.04-.02-.02,0-.04,.02-.06,.05v.15c0,.05,0,.06,.06,.07h0Z"/>
      <path class="cls-2" d="M11.99,11.55s-.05,.01-.07,.06c-.03,.06-.09,.2-.11,.25h0c-.03-.06-.07-.17-.11-.26-.02-.04-.02-.05-.06-.05h0s.15,0,.15,0h0s-.04,.02-.03,.05c.02,.06,.05,.13,.08,.19,.03-.07,.06-.14,.08-.19,.01-.04,0-.04-.04-.05h0s.13,0,.13,0h0Z"/>
      <path class="cls-2" d="M12.01,11.86h0s.05-.02,.05-.07v-.15c0-.05,0-.05-.05-.06h0s.07-.02,.1-.04c0,.02,0,.06,0,.09v.16c0,.06,0,.06,.05,.07h0s-.16,0-.16,0Zm.08-.42s-.03-.01-.03-.03c0-.02,.02-.03,.03-.03,.02,0,.03,.01,.03,.03,0,.02-.02,.03-.03,.03Z"/>
      <path class="cls-2" d="M12.49,11.79s-.08,.07-.13,.07c-.09,0-.15-.07-.15-.15,0-.06,.02-.1,.08-.14,.04-.03,.08-.04,.11-.04,.03,0,.06,0,.07,.02,0,0,0,0,0,.02,0,.01-.01,.03-.02,.03,0,0,0,0-.01,0-.02-.02-.05-.03-.08-.03-.06,0-.1,.03-.1,.12,0,.11,.08,.14,.12,.14,.04,0,.06,0,.1-.04h0Z"/>
      <path class="cls-2" d="M12.8,11.79c-.05,.05-.1,.07-.12,.07-.1,0-.15-.07-.15-.16,0-.05,.02-.09,.05-.12,.03-.03,.07-.05,.11-.05,.07,0,.11,.05,.11,.1,0,.01,0,.02,0,.02-.01,0-.11,0-.22,.01,0,.12,.07,.16,.13,.16,.03,0,.06-.01,.09-.04h0Zm-.13-.23s-.08,.03-.09,.09c.05,0,.14,0,.16,0,0,0,0,0,0-.01,0-.04-.02-.08-.08-.08Z"/>
      <path class="cls-2" d="M13.05,11.62c-.01-.05-.05-.07-.08-.07-.03,0-.05,.02-.05,.05,0,.04,.03,.05,.07,.07,.06,.03,.09,.05,.09,.1,0,.06-.06,.1-.12,.1-.03,0-.06,0-.08-.01,0-.01-.01-.06-.02-.08h0s.04,.08,.1,.08c.04,0,.06-.02,.06-.05,0-.04-.02-.05-.06-.08-.05-.02-.09-.05-.09-.1,0-.05,.04-.09,.11-.09,.03,0,.05,0,.07,0,0,.01,0,.06,0,.08h-.01Z"/>
    </g>
  </g>
</svg>